HIERARCHY
ROOT Hips
{
	OFFSET 0.000000 0.000000 0.000000
	CHANNELS 6 Xposition Yposition Zposition Zrotation Yrotation Xrotation 
	JOINT LowerBack
	{
		OFFSET 0.000000 0.000000 0.000000
		CHANNELS 3 Zrotation Yrotation Xrotation
		JOINT Spine
		{
			OFFSET 0.028270 2.035590 -0.193380
			CHANNELS 3 Zrotation Yrotation Xrotation
			JOINT Spine1
			{
				OFFSET 0.056720 2.048850 -0.042750
				CHANNELS 3 Zrotation Yrotation Xrotation
				JOINT Neck
				{
					OFFSET 0.000000 0.000000 0.000000
					CHANNELS 3 Zrotation Yrotation Xrotation
					JOINT Neck1
					{
						OFFSET -0.054170 1.746240 0.172020
						CHANNELS 3 Zrotation Yrotation Xrotation
						JOINT Head
						{
							OFFSET 0.104070 1.761360 -0.123970
							CHANNELS 3 Zrotation Yrotation Xrotation
							End Site
							{
								OFFSET 0.000000 0.000000 0.000000
							}
						}
					}
				}
				JOINT LeftShoulder
				{
					OFFSET 0.000000 0.000000 0.000000
					CHANNELS 3 Zrotation Yrotation Xrotation
					JOINT LeftArm
					{
						OFFSET 3.362410 1.200890 -0.311210
						CHANNELS 3 Zrotation Yrotation Xrotation
						JOINT LeftForeArm
						{
							OFFSET 4.983000 -0.000000 -0.000000
							CHANNELS 3 Zrotation Yrotation Xrotation
							JOINT LeftHand
							{
								OFFSET 3.483560 -0.000000 -0.000000
								CHANNELS 3 Zrotation Yrotation Xrotation
								JOINT LeftFingerBase
								{
									OFFSET 0.000000 0.000000 0.000000
									CHANNELS 3 Zrotation Yrotation Xrotation
									JOINT LeftHandIndex1
									{
										OFFSET 0.715260 -0.000000 -0.000000
										CHANNELS 3 Zrotation Yrotation Xrotation
										End Site
										{
											OFFSET 0.000000 0.000000 0.000000
										}
									}
								}
								JOINT LThumb
								{
									OFFSET 0.000000 0.000000 0.000000
									CHANNELS 3 Zrotation Yrotation Xrotation
									End Site
									{
										OFFSET 0.000000 0.000000 0.000000
									}
								}
							}
						}
					}
				}
				JOINT RightShoulder
				{
					OFFSET 0.000000 0.000000 0.000000
					CHANNELS 3 Zrotation Yrotation Xrotation
					JOINT RightArm
					{
						OFFSET -3.136600 1.374050 -0.404650
						CHANNELS 3 Zrotation Yrotation Xrotation
						JOINT RightForeArm
						{
							OFFSET -5.241900 -0.000000 -0.000000
							CHANNELS 3 Zrotation Yrotation Xrotation
							JOINT RightHand
							{
								OFFSET -3.444170 -0.000000 -0.000000
								CHANNELS 3 Zrotation Yrotation Xrotation
								JOINT RightFingerBase
								{
									OFFSET 0.000000 0.000000 0.000000
									CHANNELS 3 Zrotation Yrotation Xrotation
									JOINT RightHandIndex1
									{
										OFFSET -0.622530 -0.000000 -0.000000
										CHANNELS 3 Zrotation Yrotation Xrotation
										End Site
										{
											OFFSET 0.000000 0.000000 0.000000
										}
									}
								}
								JOINT RThumb
								{
									OFFSET 0.000000 0.000000 0.000000
									CHANNELS 3 Zrotation Yrotation Xrotation
									End Site
									{
										OFFSET 0.000000 0.000000 0.000000
									}
								}
							}
						}
					}
				}
			}
		}
	}
}
}
MOTION
Frames: 6
Frame Time: 0.008333
-0.734271 17.213701 0.635621 20.646484 79.265480 31.823767 -5.099310 0.291179 -4.602107 -1.902379 0.515207 -4.553538 -6.447246 0.347594 -2.648752 7.926299 -0.850753 -5.228866 -3.784181 -0.325855 0.643697 0.000000 0.000000 0.000000 -5.545201 8.113308 3.572795 -62.712106 28.351787 25.743783 -3.921733 -18.417052 -0.006230 -0.365157 3.638605 -0.009909 -0.075169 -0.132483 -0.000000 0.000000 0.000000 0.000000 0.000000 0.000000 0.000000 14.323863 6.977521 -0.721874 80.333426 40.854114 38.007338 1.211959 48.777876 -0.020874 -5.247867 12.923854 -0.623029 0.073052 -0.449971 -0.000000 0.000000 0.000000 0.000000 0.000000 0.000000 0.000000 
-0.573799 17.278133 0.669427 21.952658 79.139865 33.235041 -5.670143 0.526940 -4.856568 -2.017209 0.797899 -4.600581 -6.355466 0.636819 -2.609322 7.632684 -1.042674 -5.215382 -3.638885 -0.316127 0.652421 0.000000 0.000000 0.000000 -5.535374 9.072843 3.371224 -60.847543 29.951120 27.574155 -3.812018 -20.228855 -0.001930 0.673569 2.548041 0.017212 -0.069981 -0.149681 -0.000000 0.000000 0.000000 0.000000 0.000000 0.000000 0.000000 13.428410 6.947030 -0.854319 79.868273 42.578548 38.600879 1.170305 51.061472 -0.022015 -5.205991 12.172270 -0.583419 0.074030 -0.457212 -0.000000 0.000000 0.000000 0.000000 0.000000 0.000000 0.000000 
-0.412734 17.334525 0.697937 22.635381 78.987082 34.017388 -6.115759 0.783728 -5.103418 -2.107122 1.091434 -4.647073 -6.252102 0.936382 -2.559091 7.308680 -1.172244 -5.191849 -3.493448 -0.306364 0.664418 0.000000 0.000000 0.000000 -5.519202 10.018711 3.173641 -59.049124 31.445736 28.837256 -3.732936 -21.836706 0.002081 1.572400 1.632159 0.025439 -0.067070 -0.164572 -0.000000 0.000000 0.000000 0.000000 0.000000 0.000000 0.000000 12.492127 6.963052 -0.965192 79.155167 44.347315 38.958938 1.131002 53.278567 -0.022879 -5.115016 11.452159 -0.540615 0.073744 -0.463062 -0.000000 0.000000 0.000000 0.000000 0.000000 0.000000 0.000000 
-0.251009 17.382670 0.720571 22.674108 78.818174 34.166900 -6.423024 1.059500 -5.355026 -2.168156 1.392144 -4.692485 -6.135406 1.242336 -2.488613 6.950825 -1.236997 -5.170485 -3.348275 -0.296439 0.676361 0.000000 0.000000 0.000000 -5.499319 10.981659 2.984975 -57.351867 32.805015 29.535993 -3.692025 -23.226421 0.005380 2.225552 0.886820 0.021069 -0.066798 -0.177105 -0.000000 0.000000 0.000000 0.000000 0.000000 0.000000 0.000000 11.513567 7.025464 -1.058036 78.177066 46.161822 39.080063 1.090452 55.439486 -0.023511 -4.981492 10.812539 -0.498118 0.071925 -0.468308 -0.000000 0.000000 0.000000 0.000000 0.000000 0.000000 0.000000 
-0.089228 17.422601 0.737798 22.217979 78.641434 33.820173 -6.612785 1.345545 -5.594511 -2.203196 1.692920 -4.730996 -6.005104 1.547546 -2.392157 6.563476 -1.250160 -5.162391 -3.204360 -0.286270 0.684750 0.000000 0.000000 0.000000 -5.473554 11.972229 2.810680 -55.780483 34.007152 29.704462 -3.692267 -24.394324 0.007614 2.569982 0.313490 0.011299 -0.069184 -0.187224 -0.000000 0.000000 0.000000 0.000000 0.000000 0.000000 0.000000 10.508301 7.117325 -1.134976 76.932497 48.039666 38.979398 1.045410 57.528275 -0.024025 -4.818511 10.292805 -0.459530 0.068357 -0.473763 -0.000000 0.000000 0.000000 0.000000 0.000000 0.000000 0.000000 
0.072476 17.454339 0.750040 21.341836 78.462813 33.057714 -6.694681 1.636346 -5.824224 -2.213585 1.988772 -4.761968 -5.863520 1.846679 -2.270170 6.151746 -1.218828 -5.171976 -3.063152 -0.275920 0.688261 0.000000 0.000000 0.000000 -5.446961 12.974422 2.653485 -54.365182 35.073397 29.304396 -3.737675 -25.340715 0.008449 2.562398 -0.068366 0.002724 -0.074192 -0.194870 -0.000000 0.000000 0.000000 0.000000 0.000000 0.000000 0.000000 9.492713 7.226373 -1.195308 75.409716 49.980300 38.656202 0.992889 59.538026 -0.024581 -4.643744 9.909771 -0.426852 0.062946 -0.480115 -0.000000 0.000000 0.000000 0.000000 0.000000 0.000000 0.000000 
